<?xml version="1.0" encoding="UTF-8" standalone="no"?>
<svg
   xmlns:dc="http://purl.org/dc/elements/1.1/"
   xmlns:cc="http://creativecommons.org/ns#"
   xmlns:rdf="http://www.w3.org/1999/02/22-rdf-syntax-ns#"
   xmlns:svg="http://www.w3.org/2000/svg"
   xmlns="http://www.w3.org/2000/svg"
   xmlns:sodipodi="http://sodipodi.sourceforge.net/DTD/sodipodi-0.dtd"
   xmlns:inkscape="http://www.inkscape.org/namespaces/inkscape"
   height="16.000227"
   id="svg2103"
   inkscape:version="0.47 r22583"
   sodipodi:docname="bus.svg"
   sodipodi:version="0.32"
   width="15.999731"
   inkscape:output_extension="org.inkscape.output.svg.inkscape"
   inkscape:export-filename="/home/joanna/gfx/vector/aiga/aiga_bus_.png"
   inkscape:export-xdpi="41.321152"
   inkscape:export-ydpi="41.321152"
   version="1.1">
  <metadata
     id="metadata3">
    <rdf:RDF>
      <cc:Work
         rdf:about="">
        <dc:title>AIGA_Symbol_Signs</dc:title>
        <dc:description>EPS converted from  http://aiga.org</dc:description>
        <dc:subject>
          <rdf:Bag>
            <rdf:li>symbol</rdf:li>
            <rdf:li>mapsym</rdf:li>
          </rdf:Bag>
        </dc:subject>
        <dc:publisher>
          <cc:Agent
             rdf:about="http://www.openclipart.org/">
            <dc:title>Open Clip Art Library</dc:title>
          </cc:Agent>
        </dc:publisher>
        <dc:creator>
          <cc:Agent>
            <dc:title>Jean-Victor Balin</dc:title>
          </cc:Agent>
        </dc:creator>
        <dc:rights>
          <cc:Agent>
            <dc:title>Jean-Victor Balin</dc:title>
          </cc:Agent>
        </dc:rights>
        <dc:date />
        <dc:format>image/svg+xml</dc:format>
        <dc:type
           rdf:resource="http://purl.org/dc/dcmitype/StillImage" />
        <cc:license
           rdf:resource="http://web.resource.org/cc/PublicDomain" />
        <dc:language>en</dc:language>
      </cc:Work>
      <cc:License
         rdf:about="http://web.resource.org/cc/PublicDomain">
        <cc:permits
           rdf:resource="http://web.resource.org/cc/Reproduction" />
        <cc:permits
           rdf:resource="http://web.resource.org/cc/Distribution" />
        <cc:permits
           rdf:resource="http://web.resource.org/cc/DerivativeWorks" />
      </cc:License>
    </rdf:RDF>
  </metadata>
  <sodipodi:namedview
     bordercolor="#666666"
     borderopacity="1.0"
     id="base"
     inkscape:current-layer="svg2103"
     inkscape:cx="11.389755"
     inkscape:cy="4.3261585"
     inkscape:pageopacity="0.0"
     inkscape:pageshadow="2"
     inkscape:window-height="886"
     inkscape:window-width="872"
     inkscape:window-x="0"
     inkscape:window-y="25"
     inkscape:zoom="13.893067"
     pagecolor="#ffffff"
     showgrid="false"
     inkscape:window-maximized="0" />
  <defs
     id="defs2105">
    <inkscape:perspective
       sodipodi:type="inkscape:persp3d"
       inkscape:vp_x="0 : 217.53 : 1"
       inkscape:vp_y="0 : 1000 : 0"
       inkscape:vp_z="355.02399 : 217.53 : 1"
       inkscape:persp3d-origin="177.51199 : 145.02 : 1"
       id="perspective23" />
    <marker
       id="ArrowEnd"
       markerHeight="3"
       markerUnits="strokeWidth"
       markerWidth="4"
       orient="auto"
       refX="0"
       refY="5"
       viewBox="0 0 10 10">
      <path
         d="M 0,0 10,5 0,10 z"
         id="path2108" />
    </marker>
    <marker
       id="ArrowStart"
       markerHeight="3"
       markerUnits="strokeWidth"
       markerWidth="4"
       orient="auto"
       refX="10"
       refY="5"
       viewBox="0 0 10 10">
      <path
         d="M 10,0 0,5 10,10 z"
         id="path2111" />
    </marker>
  </defs>
  <path
     style="fill:#3465a4;stroke:#204a87;stroke-width:0.94344151;stroke-miterlimit:4;stroke-dasharray:none"
     id="path2115"
     d="m 8.0730308,0.47172076 c -1.70718,0 -4.06489,0.39806 -5.04046,0.72978004 -0.97559,0.33173 -1.62597,0.66345 -1.8292,1.49274 l -0.73165004,4.59743 0,6.3349202 1.26006004,0 0,0.99344 c 0,1.2113 2.17213,1.2113 2.17213,0 l 0,-0.99344 4.01009,0 0.0127,0 4.1691202,0 0,0.99344 c 0,1.2113 2.17213,1.2113 2.17213,0 l 0,-0.99344 1.26006,0 0,-6.3349202 -0.73165,-4.59743 c -0.20323,-0.82929 -0.85361,-1.16101 -1.8292,-1.49274 C 11.991591,0.86978076 9.6338808,0.47172076 7.9267008,0.47172076" />
  <g
     id="g2119"
     transform="matrix(0.0424093,0,0,0.03460854,0.47172076,0.47172076)">
    <g
       id="g2121">
      <path
         d="m 299.682,322.723 c 13.568,0 24.568,-11.002 24.568,-24.57 0,-13.568 -11,-24.57 -24.568,-24.57 -13.568,0 -24.569,11.002 -24.569,24.57 0,13.568 11.001,24.57 24.569,24.57 z"
         id="path2123"
         style="fill:#ffffff;stroke:none" />
      <path
         d=""
         id="path2125"
         style="fill:#ffffff;stroke:none" />
    </g>
    <g
       id="g2127">
      <path
         d="m 55.342,322.723 c -13.568,0 -24.568,-11.002 -24.568,-24.57 0,-13.568 11,-24.57 24.568,-24.57 13.568,0 24.569,11.002 24.569,24.57 0,13.568 -11.001,24.57 -24.569,24.57 z"
         id="path2129"
         style="fill:#ffffff;stroke:none" />
      <path
         d=""
         id="path2131"
         style="fill:#ffffff;stroke:none" />
    </g>
  </g>
  <path
     d="m 7.9193008,2.3790908 -3.01683,0 c -0.60975,0 -0.60975,-0.74636 0,-0.74636 l 3.02426,0 3.1705602,0 c 0.60975,0 0.60975,0.74636 0,0.74636 l -3.1779902,0 z"
     id="path2133"
     style="fill:#ffffff;stroke:none" />
  <path
     d="m 8.0015508,3.5724908 -4.06674,0 c -0.56202,0 -0.70885,0.23304 -0.77709,0.58654 l -0.4969,2.90954 c -0.0463,0.27888 0.0525,0.55571 0.52465,0.55571 l 4.82256,0 4.9502102,0 c 0.47216,0 0.57099,-0.27683 0.52466,-0.55571 l -0.4969,-2.90954 c -0.0682,-0.3535 -0.21507,-0.58654 -0.7771,-0.58654 l -4.2073502,0 z"
     id="path2135"
     style="fill:#ffffff;stroke:none" />
</svg>
