<?xml version="1.0" encoding="UTF-8" standalone="no"?>
<!-- Created with Inkscape (http://www.inkscape.org/) -->

<svg
   xmlns:dc="http://purl.org/dc/elements/1.1/"
   xmlns:cc="http://creativecommons.org/ns#"
   xmlns:rdf="http://www.w3.org/1999/02/22-rdf-syntax-ns#"
   xmlns:svg="http://www.w3.org/2000/svg"
   xmlns="http://www.w3.org/2000/svg"
   xmlns:sodipodi="http://sodipodi.sourceforge.net/DTD/sodipodi-0.dtd"
   xmlns:inkscape="http://www.inkscape.org/namespaces/inkscape"
   width="12.605433"
   height="16.00004"
   id="svg6348"
   version="1.1"
   inkscape:version="0.47 r22583"
   sodipodi:docname="fuel.svg">
  <defs
     id="defs6350">
    <inkscape:perspective
       sodipodi:type="inkscape:persp3d"
       inkscape:vp_x="0 : 526.18109 : 1"
       inkscape:vp_y="0 : 1000 : 0"
       inkscape:vp_z="744.09448 : 526.18109 : 1"
       inkscape:persp3d-origin="372.04724 : 350.78739 : 1"
       id="perspective6356" />
    <inkscape:perspective
       id="perspective6343"
       inkscape:persp3d-origin="0.5 : 0.33333333 : 1"
       inkscape:vp_z="1 : 0.5 : 1"
       inkscape:vp_y="0 : 1000 : 0"
       inkscape:vp_x="0 : 0.5 : 1"
       sodipodi:type="inkscape:persp3d" />
  </defs>
  <sodipodi:namedview
     id="base"
     pagecolor="#ffffff"
     bordercolor="#666666"
     borderopacity="1.0"
     inkscape:pageopacity="0.0"
     inkscape:pageshadow="2"
     inkscape:zoom="14.166667"
     inkscape:cx="6.3027174"
     inkscape:cy="7.9999505"
     inkscape:document-units="px"
     inkscape:current-layer="layer1"
     showgrid="false"
     inkscape:window-width="816"
     inkscape:window-height="595"
     inkscape:window-x="1069"
     inkscape:window-y="163"
     inkscape:window-maximized="0" />
  <metadata
     id="metadata6353">
    <rdf:RDF>
      <cc:Work
         rdf:about="">
        <dc:format>image/svg+xml</dc:format>
        <dc:type
           rdf:resource="http://purl.org/dc/dcmitype/StillImage" />
        <dc:title />
      </cc:Work>
    </rdf:RDF>
  </metadata>
  <g
     inkscape:label="Layer 1"
     inkscape:groupmode="layer"
     id="layer1"
     transform="translate(-340.49476,-493.54229)">
    <path
       style="opacity:0.99537036;fill:#204a87;fill-opacity:1;stroke:none;display:inline;enable-background:new"
       d="m 340.49484,493.54238 0,5.37024 0,1.82699 0.83775,0.0627 0.93134,6.9684 -1.76917,0 0,1.77162 0.78739,0 7.8739,0 0.78738,0 0,-1.77162 -1.9574,-0.0628 0.28666,-1.83437 c 0.38919,0.0106 2.03145,0.0862 2.65498,-0.15132 0.54082,-0.20604 1.1546,-0.55602 1.57478,-1.21799 0.42018,-0.66197 0.64145,-1.60726 0.59054,-2.71281 -0.0431,-0.93793 -0.2625,-1.66074 -0.54133,-2.26988 l 0.29527,-0.38756 -2.9035,-2.98961 0,-2.60208 -9.44867,0 8e-5,0 z m 1.57478,1.82699 6.29911,0 0,3.54325 -6.29911,0 0,-3.54325 z m 7.87389,3.87543 c 0.14393,0.0397 0.31191,0.053 0.49212,0.166 0.4696,0.29435 1.00532,0.81185 1.08266,2.49135 0.037,0.80326 -0.10567,1.25146 -0.29527,1.55018 -0.1896,0.29871 -0.4712,0.48852 -0.78739,0.60899 -0.29883,0.11392 -1.63096,0.21476 -1.88973,0.22875 l 0.43429,-3.61339 0.96324,0.0628 0,-1.49481 8e-5,1.8e-4 z"
       id="path6313"
       sodipodi:nodetypes="cccccccccccccsssccccccccccccssssccccc" />
  </g>
</svg>
