<?xml version="1.0" encoding="UTF-8" standalone="no"?>
<!-- Created with Inkscape (http://www.inkscape.org/) -->

<svg
   xmlns:dc="http://purl.org/dc/elements/1.1/"
   xmlns:cc="http://creativecommons.org/ns#"
   xmlns:rdf="http://www.w3.org/1999/02/22-rdf-syntax-ns#"
   xmlns:svg="http://www.w3.org/2000/svg"
   xmlns="http://www.w3.org/2000/svg"
   xmlns:sodipodi="http://sodipodi.sourceforge.net/DTD/sodipodi-0.dtd"
   xmlns:inkscape="http://www.inkscape.org/namespaces/inkscape"
   width="16.10289"
   height="16.100552"
   id="svg2"
   version="1.1"
   inkscape:version="0.47 r22583"
   sodipodi:docname="view_point.svg"
   inkscape:export-filename="/home/tom/tmp/beciklo/tango/view_point.png"
   inkscape:export-xdpi="12.43"
   inkscape:export-ydpi="12.43">
  <defs
     id="defs4">
    <inkscape:perspective
       sodipodi:type="inkscape:persp3d"
       inkscape:vp_x="0 : 526.18109 : 1"
       inkscape:vp_y="0 : 1000 : 0"
       inkscape:vp_z="744.09448 : 526.18109 : 1"
       inkscape:persp3d-origin="372.04724 : 350.78739 : 1"
       id="perspective10" />
    <inkscape:perspective
       id="perspective3602"
       inkscape:persp3d-origin="0.5 : 0.33333333 : 1"
       inkscape:vp_z="1 : 0.5 : 1"
       inkscape:vp_y="0 : 1000 : 0"
       inkscape:vp_x="0 : 0.5 : 1"
       sodipodi:type="inkscape:persp3d" />
    <inkscape:perspective
       id="perspective3624"
       inkscape:persp3d-origin="0.5 : 0.33333333 : 1"
       inkscape:vp_z="1 : 0.5 : 1"
       inkscape:vp_y="0 : 1000 : 0"
       inkscape:vp_x="0 : 0.5 : 1"
       sodipodi:type="inkscape:persp3d" />
    <inkscape:perspective
       id="perspective3646"
       inkscape:persp3d-origin="0.5 : 0.33333333 : 1"
       inkscape:vp_z="1 : 0.5 : 1"
       inkscape:vp_y="0 : 1000 : 0"
       inkscape:vp_x="0 : 0.5 : 1"
       sodipodi:type="inkscape:persp3d" />
    <inkscape:perspective
       id="perspective3668"
       inkscape:persp3d-origin="0.5 : 0.33333333 : 1"
       inkscape:vp_z="1 : 0.5 : 1"
       inkscape:vp_y="0 : 1000 : 0"
       inkscape:vp_x="0 : 0.5 : 1"
       sodipodi:type="inkscape:persp3d" />
    <inkscape:perspective
       id="perspective3690"
       inkscape:persp3d-origin="0.5 : 0.33333333 : 1"
       inkscape:vp_z="1 : 0.5 : 1"
       inkscape:vp_y="0 : 1000 : 0"
       inkscape:vp_x="0 : 0.5 : 1"
       sodipodi:type="inkscape:persp3d" />
  </defs>
  <sodipodi:namedview
     id="base"
     pagecolor="#ffffff"
     bordercolor="#666666"
     borderopacity="1.0"
     inkscape:pageopacity="0.0"
     inkscape:pageshadow="2"
     inkscape:zoom="3.959798"
     inkscape:cx="-3.6686419"
     inkscape:cy="0.27151217"
     inkscape:document-units="px"
     inkscape:current-layer="layer1"
     showgrid="false"
     inkscape:window-width="961"
     inkscape:window-height="803"
     inkscape:window-x="302"
     inkscape:window-y="433"
     inkscape:window-maximized="0">
    <inkscape:grid
       type="xygrid"
       id="grid3592"
       empspacing="5"
       visible="true"
       enabled="true"
       snapvisiblegridlinesonly="true" />
  </sodipodi:namedview>
  <metadata
     id="metadata7">
    <rdf:RDF>
      <cc:Work
         rdf:about="">
        <dc:format>image/svg+xml</dc:format>
        <dc:type
           rdf:resource="http://purl.org/dc/dcmitype/StillImage" />
        <dc:title></dc:title>
      </cc:Work>
    </rdf:RDF>
  </metadata>
  <g
     inkscape:label="Calque 1"
     inkscape:groupmode="layer"
     id="layer1"
     transform="translate(-571.94855,-344.31191)">
    <path
       style="fill:#4e9a06;stroke:#4e9a06;stroke-width:0.02324882px;stroke-linecap:butt;stroke-linejoin:miter;stroke-opacity:1"
       d="m 579.11584,352.36219 c 0,0 -3.8076,1.25759 -5.11545,1.25759 -1.32623,0 -1.98934,-0.2325 -1.98934,-1.22266 0,-0.97812 0.66311,-1.22266 1.98934,-1.22266 1.30854,0 5.11545,1.18773 5.11545,1.18773 z"
       id="path2818"
       sodipodi:nodetypes="czzzc" />
    <path
       style="fill:#4e9a06;stroke:#4e9a06;stroke-width:0.02324882px;stroke-linecap:butt;stroke-linejoin:miter;stroke-opacity:1"
       d="m 579.55792,353.34032 c 0,0 -0.91934,4.27675 -1.57326,5.52976 -0.66311,1.27062 -1.17667,1.78969 -1.95179,1.29461 -0.7657,-0.48907 -0.62557,-1.24664 0.0376,-2.51727 0.65427,-1.25367 3.4875,-4.3071 3.4875,-4.3071 z"
       id="path2818-3"
       sodipodi:nodetypes="czzzc" />
    <path
       style="fill:#4e9a06;stroke:#4e9a06;stroke-width:0.02324882px;stroke-linecap:butt;stroke-linejoin:miter;stroke-opacity:1"
       d="m 580.44207,353.34032 c 0,0 2.88827,3.01916 3.5422,4.27217 0.66311,1.27062 0.81266,2.02218 0.0376,2.51726 -0.7657,0.48907 -1.28869,-0.024 -1.9518,-1.2946 -0.65427,-1.25368 -1.62795,-5.49483 -1.62795,-5.49483 z"
       id="path2818-3-4"
       sodipodi:nodetypes="czzzc" />
    <path
       style="fill:#4e9a06;stroke:#4e9a06;stroke-width:0.02324882px;stroke-linecap:butt;stroke-linejoin:miter;stroke-opacity:1"
       d="m 580.88415,352.36219 c 0,0 3.8076,-1.25759 5.11545,-1.25759 1.32623,0 1.98934,0.2325 1.98934,1.22266 0,0.97812 -0.66311,1.22265 -1.98934,1.22265 -1.30854,0 -5.11545,-1.18772 -5.11545,-1.18772 z"
       id="path2818-3-4-4"
       sodipodi:nodetypes="czzzc" />
    <path
       style="fill:#4e9a06;stroke:#4e9a06;stroke-width:0.02324882px;stroke-linecap:butt;stroke-linejoin:miter;stroke-opacity:1"
       d="m 580.44207,351.38406 c 0,0 0.91934,-4.27675 1.57326,-5.52976 0.66311,-1.27062 1.17668,-1.78969 1.95179,-1.29461 0.7657,0.48906 0.62557,1.24664 -0.0375,2.51726 -0.65428,1.25368 -3.48751,4.30711 -3.48751,4.30711 z"
       id="path2818-3-4-4-6"
       sodipodi:nodetypes="czzzc" />
    <path
       style="fill:#4e9a06;stroke:#4e9a06;stroke-width:0.02324882px;stroke-linecap:butt;stroke-linejoin:miter;stroke-opacity:1"
       d="m 579.55792,351.38406 c 0,0 -2.88827,-3.01916 -3.5422,-4.27217 -0.66311,-1.27063 -0.81266,-2.02219 -0.0375,-2.51727 0.76569,-0.48906 1.28868,0.024 1.95179,1.29461 0.65427,1.25368 1.62795,5.49483 1.62795,5.49483 z"
       id="path2818-3-4-4-6-3"
       sodipodi:nodetypes="czzzc" />
  </g>
</svg>
