<?xml version="1.0" encoding="UTF-8" standalone="no"?>
<svg
   xmlns:dc="http://purl.org/dc/elements/1.1/"
   xmlns:cc="http://creativecommons.org/ns#"
   xmlns:rdf="http://www.w3.org/1999/02/22-rdf-syntax-ns#"
   xmlns:svg="http://www.w3.org/2000/svg"
   xmlns="http://www.w3.org/2000/svg"
   xmlns:sodipodi="http://sodipodi.sourceforge.net/DTD/sodipodi-0.dtd"
   xmlns:inkscape="http://www.inkscape.org/namespaces/inkscape"
   width="22.00036"
   height="21.99964"
   id="svg56"
   sodipodi:version="0.32"
   inkscape:version="0.47 r22583"
   sodipodi:docname="zoo.svg"
   inkscape:output_extension="org.inkscape.output.svg.inkscape"
   version="1.0">
  <metadata
     id="metadata63" />
  <defs
     id="defs61">
    <inkscape:perspective
       sodipodi:type="inkscape:persp3d"
       inkscape:vp_x="-50 : 600 : 1"
       inkscape:vp_y="0 : 1000 : 0"
       inkscape:vp_z="700 : 600 : 1"
       inkscape:persp3d-origin="300 : 400 : 1"
       id="perspective2408" />
  </defs>
  <sodipodi:namedview
     inkscape:window-height="717"
     inkscape:window-width="778"
     inkscape:pageshadow="2"
     inkscape:pageopacity="0.0"
     guidetolerance="10.0"
     gridtolerance="10.0"
     objecttolerance="10.0"
     borderopacity="1.0"
     bordercolor="#666666"
     pagecolor="#ffffff"
     id="base"
     inkscape:zoom="11.716922"
     inkscape:cx="12.450361"
     inkscape:cy="3.3610264"
     inkscape:window-x="470"
     inkscape:window-y="25"
     inkscape:current-layer="svg56"
     showgrid="false"
     inkscape:window-maximized="0" />
  <rect
     style="fill:#8ae234;fill-opacity:1;stroke:#8ae234;stroke-width:0.24698263000000001;stroke-linejoin:round;stroke-miterlimit:4;stroke-opacity:1;stroke-dasharray:none"
     id="rect2813"
     width="21.753378"
     height="21.752657"
     x="0.12349132"
     y="0.12349132"
     inkscape:export-filename="/home/tom/tmp/mapnik/tango/zoo.png"
     inkscape:export-xdpi="90"
     inkscape:export-ydpi="90" />
  <path
     style="fill:#4e9a06;stroke:none"
     d="m 6.3677359,14.155112 c 0.13794,0.0537 0.47674,0.009 0.36062,-0.29347 -0.0645,-0.16757 -0.36758,-0.37852 -0.50146,-0.42854 -0.20178,-0.0754 -0.54078,0.2519 -0.28171,0.4618 l -0.0563,0.22304 c -0.21695,-0.13679 -0.27877,-0.55542 -0.26112,-0.85495 0.0124,-0.21065 0.15657,-0.43278 0.21367,-0.6319 0.156,-0.544 0.28413,-1.07863 0.40546,-1.63553 0.0484,-0.22262 0.0628,-0.64392 0.20953,-0.7907 0.13744,-0.13757 0.34849,-0.15761 0.5028,-0.2589403 0.11376,-0.0747 0.18807,-0.22841 0.31041,-0.27833 0.26268,-0.10717 0.52149,-0.0795 0.64749,-0.45625 0.26603,0.52995 0.48812,1.0237803 0.53227,1.6727103 0.0314,0.46133 -0.20729,0.93433 -0.28785,1.37533 -0.0563,0.30825 -0.0389,0.62224 -0.10031,0.92928 -0.0765,0.38286 -0.22581,0.73673 -0.29863,1.11514 -0.044,0.22826 -0.004,0.48797 -0.0585,0.7062 -0.0967,0.39063 -0.64842,0.62407 -0.58282,1.11498 0.0303,0.22687 0.23077,0.27147 0.37335,0.30998 0.33104,0.0894 0.68742,0.0343 1.01411,-0.0333 0.10878,-0.0225 0.24088,0.005 0.3258,-0.1068 0.20506,-0.27053 -0.0372,-0.78174 0.0292,-1.09899 0.0476,-0.22738 0.21057,-0.4255 0.2957,-0.63191 0.18508,-0.44888 0.34178,-0.92174 0.4479,-1.41251 l 0.0281,0 c 0.007,0.43261 0.0859,0.97478 0.21168,1.37534 0.0794,0.2529 0.2839001,0.61577 0.2783201,0.8921 -0.01,0.47356 -0.5533501,0.78331 -0.2925501,1.33745 0.2623801,0.55746 0.8825101,-0.003 1.2110501,-0.10147 0.18012,-0.0538 0.42165,0.0166 0.51005,-0.27112 0.12203,-0.39715 -0.12567,-0.77362 -0.16722,-1.15072 -0.0476,-0.43156 0.0139,-0.86575 -0.046,-1.30099 -0.0439,-0.31852 -0.24033,-0.68915 -0.23373,-1.00362 0.004,-0.22128 0.12366,-0.48329 0.16232,-0.70625 l 1.07045,0.66333 0.45072,0.3403 c 0.002,0.31595 -0.004,0.69346 0.0375,1.00361 0.0201,0.14813 0.1255,0.29779 0.0934,0.45089 -0.0626,0.29833 -0.61607,0.60443 -0.49153,0.92054 0.0685,0.17375 0.25741,0.23325 0.38891,0.27786 0.33302,0.11299 1.20553,0.28276 1.45035,-0.12929 0.10789,-0.18158 0.0989,-0.4837 0.099,-0.70223 1.8e-4,-0.55081 0.0441,-1.13435 -0.0563,-1.6727 0.3625,0.29495 0.44492,0.88768 0.62662,1.37532 0.0629,0.16891 0.19406,0.43677 0.15116,0.63136 -0.0663,0.30013 -0.74473,0.76873 -0.43077,1.17394 0.087,0.11237 0.24527,0.12073 0.35725,0.16571 0.32401,0.1301 1.3075,0.34242 1.46067,-0.22451 0.14312,-0.52984 0.10658,-1.46548 0.007,-2.00668 -0.0586,-0.31853 -0.19479,-0.59482 -0.21859,-0.92928 -0.022,-0.30774 0.13966,-0.61921 0.15689,-0.92928 0.0239,-0.43167 -0.0772,-0.81074 -0.0872,-1.22665 -0.007,-0.26756 0.0615,-0.54307 0.0615,-0.81776 0.30943,1.08223 -0.0146,2.24665 0.21073,3.34539 0.0328,0.15995 0.0456,1.06704 0.28842,0.97567 0.091,-0.0343 0.11796,-0.24253 0.0997,-0.34375 -0.0797,-0.44167 -0.22413,-0.83215 -0.22491,-1.30099 -4e-4,-0.23314 0.0803,-0.47341 0.10008,-0.70625 0.11661,-1.37504 0.27945,-3.2872803 -0.61497,-4.2955403 -0.39883,-0.44958 -0.83084,-0.77796 -1.26753,-1.1502 -0.34173,-0.2913 -0.69146,-0.63139 -1.09863,-0.74733 -0.29865,-0.085 -0.62605,0.0406 -0.9296,0.0212 -0.66188,-0.0424 -1.31201,-0.20777 -1.9719,-0.28957 -0.30028,-0.0373 -0.59774,0.0392 -0.90143,-0.0362 -0.6525601,-0.16194 -1.1351901,-0.81263 -1.7747001,-1.02544 -0.20258,-0.0675 -0.55363,-0.0212 -0.76059,0.0267 -0.19544,0.0453 -0.29894,0.22595 -0.45115,0.36895 -0.44198,0.41531 -1.02163,1.08129 -1.26636,1.73755 -0.15024,0.40286 -0.16634,0.94125 -0.26273,1.37537 -0.14048,0.63275 -0.40735,1.15921 -0.48634,1.8213803 -0.0827,0.6935 0.044,1.42198 0.044,2.11876 -4e-5,0.52381 -0.2221,1.16456 -0.0808,1.67269 0.19757,0.71031 1.24639,0.945 1.32022,0 z"
     id="path58" />
  <metadata
     id="metadata65">
    <rdf:RDF>
      <cc:Work
         rdf:about="">
        <dc:title>Clipart by Nicu Buculei - contour_chipmunk</dc:title>
        <dc:rights>
          <cc:Agent>
            <dc:title>Nicu Buculei</dc:title>
          </cc:Agent>
        </dc:rights>
        <dc:type
           rdf:resource="http://purl.org/dc/dcmitype/StillImage" />
        <cc:license
           rdf:resource="http://web.resource.org/cc/PublicDomain" />
        <dc:format>image/svg+xml</dc:format>
      </cc:Work>
      <cc:License
         rdf:about="http://web.resource.org/cc/PublicDomain">
        <cc:permits
           rdf:resource="http://web.resource.org/cc/Reproduction" />
        <cc:permits
           rdf:resource="http://web.resource.org/cc/Distribution" />
        <cc:permits
           rdf:resource="http://web.resource.org/cc/DerivativeWorks" />
      </cc:License>
    </rdf:RDF>
  </metadata>
</svg>
